<?xml version="1.0" encoding="utf-8"?>
<!-- Generator: Adobe Illustrator 22.0.1, SVG Export Plug-In . SVG Version: 6.00 Build 0)  -->
<svg version="1.1" id="Calque_1" xmlns="http://www.w3.org/2000/svg" xmlns:xlink="http://www.w3.org/1999/xlink" x="0px" y="0px"
	 viewBox="0 0 12 12" style="enable-background:new 0 0 12 12;" xml:space="preserve">
<path d="M10.2,8.8L7.4,6l2.8-2.8c0.4-0.4,0.4-1,0-1.4s-1-0.4-1.4,0L6,4.6L3.2,1.8c-0.4-0.4-1-0.4-1.4,0c-0.4,0.4-0.4,1,0,1.4L4.6,6
	L1.8,8.8c-0.4,0.4-0.4,1,0,1.4s1,0.4,1.4,0L6,7.4l2.8,2.8c0.4,0.4,1,0.4,1.4,0C10.6,9.9,10.6,9.2,10.2,8.8z"/>
</svg>
