<?xml version="1.0" encoding="utf-8"?>
<!-- Generator: Adobe Illustrator 22.0.1, SVG Export Plug-In . SVG Version: 6.00 Build 0)  -->
<svg version="1.1" id="Calque_1" xmlns="http://www.w3.org/2000/svg" xmlns:xlink="http://www.w3.org/1999/xlink" x="0px" y="0px"
	 viewBox="0 0 20 20" style="enable-background:new 0 0 20 20;" xml:space="preserve">
<style type="text/css">
	.st0{opacity:0.9;}
	.st1{fill:#FFFFFF;}
</style>
<g id="_x37_7kM6s_2_" class="st0">
	<g>
		<path class="st1" d="M10,0c5.5,0,10,4.5,10,10s-4.5,10-10,10S0,15.5,0,10S4.5,0,10,0z"/>
	</g>
</g>
<g>
	<path d="M10,1c5,0,9,4,9,9s-4,9-9,9s-9-4-9-9S5,1,10,1 M10,0C4.5,0,0,4.5,0,10s4.5,10,10,10s10-4.5,10-10S15.5,0,10,0L10,0z"/>
</g>
<path d="M11.4,10l2.8-2.8c0.4-0.4,0.4-1,0-1.4s-1-0.4-1.4,0L10,8.6L7.2,5.8c-0.4-0.4-1-0.4-1.4,0s-0.4,1,0,1.4L8.6,10l-2.8,2.8
	c-0.4,0.4-0.4,1,0,1.4s1,0.4,1.4,0l2.8-2.8l2.8,2.8c0.4,0.4,1,0.4,1.4,0s0.4-1,0-1.4L11.4,10z"/>
</svg>
