<?xml version="1.0" encoding="utf-8"?>
<!-- Generator: Adobe Illustrator 22.0.1, SVG Export Plug-In . SVG Version: 6.00 Build 0)  -->
<svg version="1.1" id="Calque_1" xmlns="http://www.w3.org/2000/svg" xmlns:xlink="http://www.w3.org/1999/xlink" x="0px" y="0px"
	 viewBox="0 0 16 12" style="enable-background:new 0 0 16 12;" xml:space="preserve">
<g>
	<path d="M15,7H1C0.4,7,0,6.6,0,6v0c0-0.6,0.4-1,1-1h14c0.6,0,1,0.4,1,1v0C16,6.6,15.6,7,15,7z"/>
	<path d="M15,12H1c-0.6,0-1-0.4-1-1v0c0-0.6,0.4-1,1-1h14c0.6,0,1,0.4,1,1v0C16,11.6,15.6,12,15,12z"/>
	<path d="M15,2H1C0.4,2,0,1.6,0,1v0c0-0.6,0.4-1,1-1h14c0.6,0,1,0.4,1,1v0C16,1.6,15.6,2,15,2z"/>
</g>
</svg>
