<?xml version="1.0" encoding="utf-8"?>
<!-- Generator: Adobe Illustrator 22.0.1, SVG Export Plug-In . SVG Version: 6.00 Build 0)  -->
<svg version="1.1" id="Calque_1" xmlns="http://www.w3.org/2000/svg" xmlns:xlink="http://www.w3.org/1999/xlink" x="0px" y="0px"
	 viewBox="0 0 20 20" style="enable-background:new 0 0 20 20;" xml:space="preserve">
<style type="text/css">
	.st0{fill:none;stroke:#000000;stroke-linecap:round;stroke-linejoin:round;stroke-miterlimit:10;}
</style>
<path class="st0" d="M9.7,7.4C9.6,8.2,9.4,9.1,9.3,9.9"/>
<path class="st0" d="M8.2,8.8c0.8-0.1,2-0.1,2.9,0"/>
<path class="st0" d="M9.8,18.4c0.3-0.8,0.4-1.5,0.6-2.3c0.3-0.9,0.7-1.7,0.9-2.6c0.1-0.5,0.2-1,0.2-1.5c0-0.2-0.1-0.4-0.2-0.6"/>
<path class="st0" d="M12.7,10.4c-0.6,0.7-1.7,1-2.6,1.2c-0.9,0.1-1.6,0-2.2,0.8s-0.5,1.7-1.4,2.3c-0.4,0.3-1.4,0.9-1.7,0.2
	c-0.3-0.6,1.1-1,0.3-1.4c-0.9-0.4-1.6,0.9-2.4,0.7C1.8,13.8,1.9,12,2,11.3c0.2-0.8,1-1.1,1.8-1.4c0.7-0.3,1.3-0.6,1.9-1
	C6.1,8.5,6.4,8,6.9,7.7c0.5-0.4,1-0.8,1.3-1.4c0.2-0.5,0.3-1,0.5-1.5c0.2-0.3,0.4-0.7,0.4-1c0.1-0.3,0.1-0.7,0.2-1
	C9.4,2.5,9.4,2.3,9.4,2c0-0.4,0-0.8,0.4-1.1c0.6-0.5,0.8,0.3,0.8,0.7c0,0.8,0,1.6,0.6,2.2c0.5,0.6,0.9-0.5,1-0.9
	c0.2-0.5,0-1,0.1-1.5c0.1-0.3,0.5-0.8,0.9-0.7c0.2,0.1,0.3,0.2,0.3,0.4c0.1,0.4,0.2,0.8,0.3,1.2C14,2.6,14.1,3,14.1,3.4
	c0,0.2,0,0.3,0,0.5c0,0.2,0.1,0.3,0.2,0.5c0.5,0.9,1.1,1.8,1.6,2.7C18,10.8,18,16.4,18,17.3"/>
<circle cx="4" cy="11.7" r="0.5"/>
</svg>
