<?xml version="1.0" encoding="utf-8"?>
<!-- Generator: Adobe Illustrator 22.0.1, SVG Export Plug-In . SVG Version: 6.00 Build 0)  -->
<svg version="1.1" id="Calque_1" xmlns="http://www.w3.org/2000/svg" xmlns:xlink="http://www.w3.org/1999/xlink" x="0px" y="0px"
	 viewBox="0 0 1440 800" style="enable-background:new 0 0 1440 800;" xml:space="preserve">
<style type="text/css">
	.st0{fill:#BD9806;}
</style>
<g id="Calque_2_1_">
</g>
<g>
	<path class="st0" d="M901.7,457.6c0.7,0,1.1-0.4,1.1-0.9v-6.1c0-0.5-0.4-0.9-0.9-0.9h-1.8c-6.3,0-8.1-1.8-5.6-6.8l8.8-17.6H973
		l9.9,17.6c2.7,4.9,0.7,6.8-5.6,6.8h-1.8c-0.5,0-0.9,0.4-0.9,0.9v6.1c0,0.5,0.4,0.9,1.1,0.9h46.3c0.7,0,1.1-0.4,1.1-0.9v-6.1
		c0-0.5-0.4-0.9-0.9-0.9h-0.7c-6.5,0-9.7-2.9-13.7-9.5l-56-97.4c-0.5-0.9-1.3-1.4-2.7-0.9l-15.8,5.6c-1.4,0.5-2,1.1-2.7,2.5
		l-47.2,90.2c-3.6,6.8-7.2,9.5-13.7,9.5h-0.7c-0.5,0-0.9,0.4-0.9,0.9v6.1c0,0.5,0.4,0.9,1.1,0.9H901.7z M932.5,368
		c1.4-2.9,2.5-4,4.1-4s2.5,0.9,4.1,3.8l26.3,47h-58.3L932.5,368z M821.2,342.4c-1.4,0-1.6,0.4-2.2,1.3l-42.5,80.3
		c-1.8,3.6-2.9,5.2-5,5.2c-2.2,0-3.6-1.6-5.4-5.2l-40.5-80.3c-0.5-0.9-0.7-1.3-2.2-1.3h-32c-0.5,0-0.9,0.4-0.9,0.9v6.1
		c0,0.5,0.4,0.9,0.9,0.9h1.8c6.3,0,12.1,2.2,12.1,14.2v70.9c0,12.1-5.8,14.2-12.1,14.2h-1.8c-0.5,0-0.9,0.4-0.9,0.9v6.1
		c0,0.5,0.4,0.9,0.9,0.9H729c0.5,0,0.9-0.4,0.9-0.9v-6.1c0-0.5-0.4-0.9-0.9-0.9h-1.8c-6.3,0-12.1-2.2-12.1-14.2V386
		c0-2.5,1.4-3.2,2.9-3.2s2.5,1.1,4,4l34.2,68.8c0.7,1.3,1.8,2.2,4,2.2h7.2c2.2,0,3.2-0.9,4-2.2l41.2-81c1.4-2.9,2.5-4,4-4
		c1.4,0,2.9,0.7,2.9,3.2v61.7c0,12.1-5.8,14.2-12.1,14.2h-1.8c-0.5,0-0.9,0.4-0.9,0.9v6.1c0,0.5,0.4,0.9,0.9,0.9H853
		c0.5,0,0.9-0.4,0.9-0.9v-6.1c0-0.5-0.4-0.9-0.9-0.9h-1.8c-6.3,0-12.1-2.2-12.1-14.2v-70.9c0-12.1,5.8-14.2,12.1-14.2h1.8
		c0.5,0,0.9-0.4,0.9-0.9v-6.1c0-0.5-0.4-0.9-0.9-0.9H821.2z M642.2,435.5c0,12.1-5.8,14.2-12.1,14.2h-1.8c-0.5,0-0.9,0.4-0.9,0.9
		v6.1c0,0.5,0.4,0.9,0.9,0.9h47.5c0.5,0,0.9-0.4,0.9-0.9v-6.1c0-0.5-0.4-0.9-0.9-0.9h-1.8c-6.3,0-12.1-2.2-12.1-14.2v-70.9
		c0-12.1,5.8-14.2,12.1-14.2h1.8c0.5,0,0.9-0.4,0.9-0.9v-6.1c0-0.5-0.4-0.9-0.9-0.9h-47.5c-0.5,0-0.9,0.4-0.9,0.9v6.1
		c0,0.5,0.4,0.9,0.9,0.9h1.8c6.3,0,12.1,2.2,12.1,14.2V435.5z M596.2,457.6c1.8,0,2.5-0.7,2.5-2.5v-90.5c0-12.1,5.8-14.2,12.1-14.2
		h1.8c0.5,0,0.9-0.4,0.9-0.9v-6.1c0-0.5-0.4-0.9-1.1-0.9H575c-0.5,0-0.9,0.4-0.9,0.9v6.1c0,0.5,0.4,0.9,0.9,0.9h1.8
		c6.3,0,12.1,2.2,12.1,14.2v59.6c0,3.1-1.1,4-2.5,4c-2.2,0-4-2.5-5-3.6L509.8,344c-1.1-1.1-2.3-1.6-4.3-1.6h-25.7
		c-0.5,0-0.9,0.4-0.9,0.9v6.1c0,0.5,0.4,0.9,0.9,0.9h1.8c6.3,0,12.1,2.2,12.1,14.2v70.9c0,12.1-5.8,14.2-12.1,14.2h-1.8
		c-0.5,0-0.9,0.4-0.9,0.9v6.1c0,0.5,0.4,0.9,0.9,0.9h37.6c0.5,0,0.9-0.4,0.9-0.9v-6.1c0-0.5-0.4-0.9-0.9-0.9h-1.8
		c-6.3,0-12.1-2.2-12.1-14.2v-58.1c0-2.9,0.9-3.6,2.3-3.6c1.8,0,3.6,1.8,5.2,3.6l68,78.7c1.1,1.1,2.3,1.6,4.3,1.6H596.2z"/>
	<path class="st0" d="M1082.9,448.8c-14.4,0-31.3-8.8-38.2-23.9l-2.2-4.7c-0.4-0.9-0.5-1.1-1.4-1.1h-5.6c-0.7,0-1.1,0.2-1.1,1.3v0.5
		l4.5,35.1c0.2,1.3,0.5,1.6,1.4,1.6h5.4c0.5,0,1.1-0.4,1.1-0.9v-8.5c0-1.4,0.7-2.3,1.6-2.3c1.4,0,3.1,0.7,6.1,3.1
		c9.5,7.6,20.3,10.8,31.5,10.8c24.1,0,42.1-15.1,42.1-36.7c0-13.1-7.7-23.6-18.2-28.6c-20.3-9.7-57.6,2-57.6-23.2
		c0-11.9,11-20.5,24.8-20.5c13.3,0,29,7.4,35.5,20.9l2,4.1c0.4,0.7,0.5,0.9,1.3,0.9h5.2c0.7,0,1.1-0.2,1.1-1.1V375l-4.1-31.1
		c-0.2-1.1-0.5-1.4-1.4-1.4h-5c-0.5,0-0.9,0.4-0.9,0.9v7.2c0,1.3-0.7,2-1.6,2c-1.3,0-2.9-0.5-5.8-2.7c-8.8-6.7-18.9-9.5-29.3-9.5
		c-22.9,0-40,16.6-40,36.5c0,16.4,7.9,28.3,25.6,33.5c14.8,4.5,47.7-2,47.7,19.6C1107.3,442.5,1096.5,448.8,1082.9,448.8"/>
	<path class="st0" d="M344.4,457.6c0.7,0,1.1-0.4,1.1-0.9v-6.1c0-0.5-0.4-0.9-0.9-0.9h-1.8c-6.3,0-8.1-1.8-5.6-6.8l8.8-17.6h69.7
		l9.9,17.6c2.7,4.9,0.7,6.8-5.6,6.8h-1.8c-0.5,0-0.9,0.4-0.9,0.9v6.1c0,0.5,0.4,0.9,1.1,0.9h46.3c0.7,0,1.1-0.4,1.1-0.9v-6.1
		c0-0.5-0.4-0.9-0.9-0.9h-0.7c-6.5,0-9.7-2.9-13.7-9.5l-56-97.4c-0.5-0.9-1.3-1.4-2.7-0.9l-15.8,5.6c-1.4,0.5-2,1.1-2.7,2.5
		l-47.2,90.2c-3.6,6.8-7.2,9.5-13.7,9.5h-0.7c-0.5,0-0.9,0.4-0.9,0.9v6.1c0,0.5,0.4,0.9,1.1,0.9H344.4z M375.2,368
		c1.4-2.9,2.5-4,4.1-4s2.5,0.9,4.1,3.8l26.3,47h-58.3L375.2,368z"/>
</g>
</svg>
