<?xml version="1.0" encoding="utf-8"?>
<!-- Generator: Adobe Illustrator 22.0.1, SVG Export Plug-In . SVG Version: 6.00 Build 0)  -->
<svg version="1.1" id="Calque_1" xmlns="http://www.w3.org/2000/svg" xmlns:xlink="http://www.w3.org/1999/xlink" x="0px" y="0px"
	 viewBox="0 0 1440 800" style="enable-background:new 0 0 1440 800;" xml:space="preserve">
<style type="text/css">
	.st0{fill:#BD9806;}
</style>
<g id="Calque_2_1_">
</g>
<g>
	<g>
		<path class="st0" d="M256.6,307.3c0.7,0,1.1-0.4,1.1-0.9v-6.1c0-0.5-0.4-0.9-0.9-0.9h-1.8c-6.3,0-8.1-1.8-5.6-6.8l8.8-17.6h69.7
			l9.9,17.6c2.7,4.9,0.7,6.8-5.6,6.8h-1.8c-0.5,0-0.9,0.4-0.9,0.9v6.1c0,0.5,0.4,0.9,1.1,0.9h46.3c0.7,0,1.1-0.4,1.1-0.9v-6.1
			c0-0.5-0.4-0.9-0.9-0.9h-0.7c-6.5,0-9.7-2.9-13.7-9.5l-56-97.4c-0.5-0.9-1.3-1.4-2.7-0.9l-15.8,5.6c-1.4,0.5-2,1.1-2.7,2.5
			l-47.2,90.2c-3.6,6.8-7.2,9.5-13.7,9.5h-0.7c-0.5,0-0.9,0.4-0.9,0.9v6.1c0,0.5,0.4,0.9,1.1,0.9H256.6z M287.3,217.6
			c1.4-2.9,2.5-4,4.1-4c1.6,0,2.5,0.9,4.1,3.8l26.3,47h-58.3L287.3,217.6z"/>
	</g>
	<g>
		<path class="st0" d="M841.5,457.3c0.9,0,1.3-0.2,1.6-1.1l10.1-28.6c0.2-0.7-0.2-1.3-0.9-1.4l-6.1-2c-0.7-0.2-1.3,0-1.4,0.5
			c-5.2,11.3-10.4,23.9-38,23.9c-16,0-27.4-2.5-27.4-18.4v-12.1c0-8.6,1.3-14,11.3-14c10.3,0,16.6,8.1,18.5,18.5
			c0,0.5,0.4,0.7,0.9,0.7l5.4-0.4c0.5-0.2,0.9-0.5,0.9-1.1l-3.2-42.5c0-0.5-0.4-0.9-0.9-0.9l-5.4,0.4c-0.5,0-0.9,0.4-0.9,0.9
			c-0.4,10.6-5.9,18-15.8,18c-8.5,0-10.8-4.5-10.8-17.6v-12.8c0-16.9,5.6-17.1,23.2-17.1c26.1,0,30.8,13,36,24.3
			c0.2,0.5,0.7,0.7,1.4,0.5l6.1-2c0.7-0.2,1.1-0.7,0.9-1.4L837,343.2c-0.4-0.9-0.7-1.1-1.6-1.1h-89.6c-0.5,0-0.9,0.4-0.9,0.9v6.1
			c0,0.5,0.4,0.9,0.9,0.9h1.8c6.3,0,12.1,2.2,12.1,14.2v70.9c0,12.1-5.8,14.2-12.1,14.2h-1.8c-0.5,0-0.9,0.4-0.9,0.9v6.1
			c0,0.5,0.4,0.9,0.9,0.9H841.5z"/>
		<path class="st0" d="M698,342.1c-1.4,0-1.6,0.4-2.2,1.3l-42.5,80.3c-1.8,3.6-2.9,5.2-5,5.2s-3.6-1.6-5.4-5.2l-40.5-80.3
			c-0.5-0.9-0.7-1.3-2.2-1.3h-32c-0.5,0-0.9,0.4-0.9,0.9v6.1c0,0.5,0.4,0.9,0.9,0.9h1.8c6.3,0,12.1,2.2,12.1,14.2v70.9
			c0,12.1-5.8,14.2-12.1,14.2h-1.8c-0.5,0-0.9,0.4-0.9,0.9v6.1c0,0.5,0.4,0.9,0.9,0.9h37.6c0.5,0,0.9-0.4,0.9-0.9v-6.1
			c0-0.5-0.4-0.9-0.9-0.9H604c-6.3,0-12.1-2.2-12.1-14.2v-49.5c0-2.5,1.4-3.2,2.9-3.2s2.5,1.1,4,4l34.2,68.8c0.7,1.3,1.8,2.2,4,2.2
			h7.2c2.2,0,3.2-0.9,4-2.2l41.2-81c1.4-2.9,2.5-4,4-4s2.9,0.7,2.9,3.2v61.7c0,12.1-5.8,14.2-12.1,14.2h-1.8c-0.5,0-0.9,0.4-0.9,0.9
			v6.1c0,0.5,0.4,0.9,0.9,0.9h47.5c0.5,0,0.9-0.4,0.9-0.9v-6.1c0-0.5-0.4-0.9-0.9-0.9H728c-6.3,0-12.1-2.2-12.1-14.2v-70.9
			c0-12.1,5.8-14.2,12.1-14.2h1.8c0.5,0,0.9-0.4,0.9-0.9V343c0-0.5-0.4-0.9-0.9-0.9H698z"/>
		<path class="st0" d="M519,435.1c0,12.1-5.8,14.2-12.1,14.2h-1.8c-0.5,0-0.9,0.4-0.9,0.9v6.1c0,0.5,0.4,0.9,0.9,0.9h47.5
			c0.5,0,0.9-0.4,0.9-0.9v-6.1c0-0.5-0.4-0.9-0.9-0.9h-1.8c-6.3,0-12.1-2.2-12.1-14.2v-70.9c0-12.1,5.8-14.2,12.1-14.2h1.8
			c0.5,0,0.9-0.4,0.9-0.9V343c0-0.5-0.4-0.9-0.9-0.9h-47.5c-0.5,0-0.9,0.4-0.9,0.9v6.1c0,0.5,0.4,0.9,0.9,0.9h1.8
			c6.3,0,12.1,2.2,12.1,14.2V435.1z"/>
		<path class="st0" d="M434.2,435.1c0,12.1-5.8,14.2-12.1,14.2h-1.8c-0.5,0-0.9,0.4-0.9,0.9v6.1c0,0.5,0.4,0.9,0.9,0.9h47.5
			c0.5,0,0.9-0.4,0.9-0.9v-6.1c0-0.5-0.4-0.9-0.9-0.9H466c-6.3,0-12.1-2.2-12.1-14.2v-71.8c0-9.5,4.7-11.3,9.2-11.3
			s8.5,1.6,11.9,5.4l15.3,16.9c0.9,0.9,1.8,2,3.1,2s2.3-1.1,2.3-2.3c0-0.7-0.2-1.3-0.7-2.3l-12.4-27.5c-0.7-1.6-1.1-2-3.4-2H409
			c-2.3,0-2.7,0.4-3.4,2l-12.4,27.5c-0.4,1.1-0.7,1.6-0.7,2.3c0,1.3,1.1,2.3,2.3,2.3s2.2-1.1,3.1-2l15.3-16.9
			c3.4-3.8,7.4-5.4,11.9-5.4s9.2,1.8,9.2,11.3V435.1z"/>
	</g>
	<path class="st0" d="M879.3,500.6c8.1-0.7,15.7-0.9,24.3-0.9c26.1,0,39.2,8.3,39.2,30.2c0,16.2-9,29.2-29.7,29.2h-33.8V500.6z
		 M982.9,594.7c0.2-0.7,0-1.3-0.9-1.6l-2.9-0.9c-1.1-0.4-1.4,0.2-2,1.1c-2.2,3.4-5.8,5.2-10.1,5.2c-18.5,0-26.3-30.4-48.2-30.4v-0.4
		h3.6c23.4,0,44.1-15.7,44.1-38.2c0-24.3-22.5-38.2-47.7-38.2h-72.4c-1.4,0-1.8,0.2-1.8,1.1v5.8c0,0.9,0.4,1.1,1.8,1.1
		c10.8,0,13,5.9,13,14.2v70.9c0,8.3-2.2,14.2-13,14.2c-1.4,0-1.8,0.2-1.8,1.1v5.8c0,0.9,0.4,1.1,1.8,1.1h45.7c1.4,0,1.8-0.2,1.8-1.1
		v-5.8c0-0.9-0.4-1.1-1.8-1.1c-10.8,0-13-5.9-13-14.2v-16.7h22.5c4.7,26.1,24.1,42.3,53.8,42.3C966.9,610,980.2,605.2,982.9,594.7
		 M738.7,560.5v-47c0-12.1,5.8-14.2,12.1-14.2h1.8c0.5,0,0.9-0.4,0.9-0.9v-6.1c0-0.5-0.4-0.9-0.9-0.9h-47.5c-0.5,0-0.9,0.4-0.9,0.9
		v6.1c0,0.5,0.4,0.9,0.9,0.9h1.8c6.3,0,12.1,2.2,12.1,14.2v43.6c0,33.3,13.9,51.7,48.1,51.7c34.9,0,49-18.4,49-51.7v-43.6
		c0-12.1,5.8-14.2,12.1-14.2h1.8c0.5,0,0.9-0.4,0.9-0.9v-6.1c0-0.5-0.4-0.9-0.9-0.9h-37.6c-0.5,0-0.9,0.4-0.9,0.9v6.1
		c0,0.5,0.4,0.9,0.9,0.9h1.8c6.3,0,12.1,2.2,12.1,14.2v47c0,28.6-14.2,38.9-34.7,38.9C750.3,599.4,738.7,588.3,738.7,560.5
		 M641.7,598c-19.8,0-26.1-4.3-26.1-19.6v-25.9h23.8c18.4,0,31.9,4.5,31.9,21.2C671.2,589.7,660.4,598,641.7,598 M646.9,606.6
		c25.7,0,48.1-10.8,48.1-31.9c0-18.4-17.1-27.4-30.1-27.7v-0.4c12.4-2,23.2-10.6,23.2-24.8c0-23.9-28.8-30.4-47-30.4h-59.2
		c-0.5,0-0.9,0.4-0.9,0.9v6.1c0,0.5,0.4,0.9,0.9,0.9h1.8c6.3,0,12.1,2.2,12.1,14.2v70.9c0,12.1-5.8,14.2-12.1,14.2h-1.8
		c-0.5,0-0.9,0.4-0.9,0.9v6.1c0,0.5,0.4,0.9,0.9,0.9H646.9z M615.6,500.8c5.4-0.7,11.9-1.1,17.6-1.1c19.3,0,32.2,7,32.2,22.3
		c0,15.8-13,21.4-30.4,21.4h-19.4V500.8z"/>
</g>
<path class="st0" d="M127.5,285.1c0,12.1-5.8,14.2-12.1,14.2h-1.8c-0.5,0-0.9,0.4-0.9,0.9v6.1c0,0.5,0.4,0.9,0.9,0.9h90.7
	c0.9,0,1.3-0.2,1.6-1.1l8.8-26.1c0.9-2.5,0.9-3.1-0.5-3.6l-5.4-2.2c-1.3-0.5-1.8-0.4-2.5,1.6c-6.8,18.7-14,22.7-31.7,22.7
	c-17.3,0-27.4-4.5-27.4-20.2v-64.3c0-12.1,5.8-14.2,12.1-14.2h1.8c0.5,0,0.9-0.4,0.9-0.9V193c0-0.5-0.4-0.9-0.9-0.9h-47.5
	c-0.5,0-0.9,0.4-0.9,0.9v6.1c0,0.5,0.4,0.9,0.9,0.9h1.8c6.3,0,12.1,2.2,12.1,14.2V285.1z"/>
<path class="st0" d="M536.4,285.1c0,12.1-5.8,14.2-12.1,14.2h-1.8c-0.5,0-0.9,0.4-0.9,0.9v6.1c0,0.5,0.4,0.9,0.9,0.9H570
	c0.5,0,0.9-0.4,0.9-0.9v-6.1c0-0.5-0.4-0.9-0.9-0.9h-1.8c-6.3,0-12.1-2.2-12.1-14.2v-71.8c0-9.5,4.7-11.3,9.2-11.3s8.5,1.6,11.9,5.4
	l15.3,16.9c0.9,0.9,1.8,2,3.1,2c1.3,0,2.3-1.1,2.3-2.3c0-0.7-0.2-1.3-0.7-2.3l-12.4-27.5c-0.7-1.6-1.1-2-3.4-2h-70.2
	c-2.3,0-2.7,0.4-3.4,2l-12.4,27.5c-0.4,1.1-0.7,1.6-0.7,2.3c0,1.3,1.1,2.3,2.3,2.3c1.3,0,2.2-1.1,3.1-2l15.3-16.9
	c3.4-3.8,7.4-5.4,11.9-5.4s9.2,1.8,9.2,11.3V285.1z"/>
<path class="st0" d="M437.7,298.5c-14.4,0-31.3-8.8-38.2-23.9l-2.2-4.7c-0.4-0.9-0.5-1.1-1.4-1.1h-5.6c-0.7,0-1.1,0.2-1.1,1.3v0.5
	l4.5,35.1c0.2,1.3,0.5,1.6,1.4,1.6h5.4c0.5,0,1.1-0.4,1.1-0.9v-8.5c0-1.4,0.7-2.3,1.6-2.3c1.4,0,3.1,0.7,6.1,3.1
	c9.5,7.6,20.3,10.8,31.5,10.8c24.1,0,42.1-15.1,42.1-36.7c0-13.1-7.7-23.6-18.2-28.6c-20.3-9.7-57.6,2-57.6-23.2
	c0-11.9,11-20.5,24.8-20.5c13.3,0,29,7.4,35.5,20.9l2,4.1c0.4,0.7,0.5,0.9,1.3,0.9h5.2c0.7,0,1.1-0.2,1.1-1.1v-0.5l-4.1-31.1
	c-0.2-1.1-0.5-1.4-1.4-1.4h-5c-0.5,0-0.9,0.4-0.9,0.9v7.2c0,1.3-0.7,2-1.6,2c-1.3,0-2.9-0.5-5.8-2.7c-8.8-6.7-18.9-9.5-29.3-9.5
	c-22.9,0-40,16.6-40,36.5c0,16.4,7.9,28.3,25.6,33.5c14.8,4.5,47.7-2,47.7,19.6C462.2,292.2,451.4,298.5,437.7,298.5"/>
<path class="st0" d="M1208,606.6c0.7,0,1.1-0.4,1.1-0.9v-6.1c0-0.5-0.4-0.9-0.9-0.9h-1.8c-6.3,0-8.1-1.8-5.6-6.8l8.8-17.6h69.7
	l9.9,17.6c2.7,4.9,0.7,6.8-5.6,6.8h-1.8c-0.5,0-0.9,0.4-0.9,0.9v6.1c0,0.5,0.4,0.9,1.1,0.9h46.3c0.7,0,1.1-0.4,1.1-0.9v-6.1
	c0-0.5-0.4-0.9-0.9-0.9h-0.7c-6.5,0-9.7-2.9-13.7-9.5l-56-97.4c-0.5-0.9-1.3-1.4-2.7-0.9l-15.8,5.6c-1.4,0.5-2,1.1-2.7,2.5
	l-47.2,90.2c-3.6,6.8-7.2,9.5-13.7,9.5h-0.7c-0.5,0-0.9,0.4-0.9,0.9v6.1c0,0.5,0.4,0.9,1.1,0.9H1208z M1238.8,517
	c1.4-2.9,2.5-4,4.1-4s2.5,0.9,4.1,3.8l26.3,47H1215L1238.8,517z"/>
<path class="st0" d="M1127.5,491.4c-1.4,0-1.6,0.4-2.2,1.3l-42.5,80.3c-1.8,3.6-2.9,5.2-5,5.2s-3.6-1.6-5.4-5.2l-40.5-80.3
	c-0.5-0.9-0.7-1.3-2.2-1.3h-32c-0.5,0-0.9,0.4-0.9,0.9v6.1c0,0.5,0.4,0.9,0.9,0.9h1.8c6.3,0,12.1,2.2,12.1,14.2v70.9
	c0,12.1-5.8,14.2-12.1,14.2h-1.8c-0.5,0-0.9,0.4-0.9,0.9v6.1c0,0.5,0.4,0.9,0.9,0.9h37.6c0.5,0,0.9-0.4,0.9-0.9v-6.1
	c0-0.5-0.4-0.9-0.9-0.9h-1.8c-6.3,0-12.1-2.2-12.1-14.2V535c0-2.5,1.4-3.2,2.9-3.2c1.4,0,2.5,1.1,4,4l34.2,68.8
	c0.7,1.3,1.8,2.2,4,2.2h7.2c2.2,0,3.2-0.9,4-2.2l41.2-81c1.4-2.9,2.5-4,4-4c1.4,0,2.9,0.7,2.9,3.2v61.7c0,12.1-5.8,14.2-12.1,14.2
	h-1.8c-0.5,0-0.9,0.4-0.9,0.9v6.1c0,0.5,0.4,0.9,0.9,0.9h47.5c0.5,0,0.9-0.4,0.9-0.9v-6.1c0-0.5-0.4-0.9-0.9-0.9h-1.8
	c-6.3,0-12.1-2.2-12.1-14.2v-70.9c0-12.1,5.8-14.2,12.1-14.2h1.8c0.5,0,0.9-0.4,0.9-0.9v-6.1c0-0.5-0.4-0.9-0.9-0.9H1127.5z"/>
</svg>
