<?xml version="1.0" encoding="utf-8"?>
<!-- Generator: Adobe Illustrator 22.0.1, SVG Export Plug-In . SVG Version: 6.00 Build 0)  -->
<svg version="1.1" id="Calque_1" xmlns="http://www.w3.org/2000/svg" xmlns:xlink="http://www.w3.org/1999/xlink" x="0px" y="0px"
	 viewBox="0 0 20 20" style="enable-background:new 0 0 20 20;" xml:space="preserve">
<style type="text/css">
	.st0{fill:none;stroke:#000000;stroke-linecap:round;stroke-linejoin:round;stroke-miterlimit:10;}
</style>
<g>
	<path class="st0" d="M2.8,7c1.7,1.9,5.4,6,6.5,6c0.5,0,6.3-6.8,7.2-7.7"/>
	<path class="st0" d="M3,14.7c0.7-1.2,2.3-3.2,3.1-4.1"/>
	<path class="st0" d="M13.2,9.5c1.8,0.8,2.6,2,4.1,2.8"/>
	<path class="st0" d="M1,5.4C1,7.1,1,9.1,1,11c0,1.3-0.2,3,0.3,4.3c0.3,0.6,0,0.4,0.4,0.8c0.7,0.6,3.4,0.1,4.3,0
		c3.5-0.2,6.8-1.2,10.2-1.9c0.8-0.2,1.8-0.3,2.6-0.3c0.3-1.1-0.3-2.9-0.4-4.1c-0.2-1.6-0.4-3.3-0.6-4.9c0-0.2,0-0.9-0.2-1.1
		C17.4,3.3,5.4,3.7,1,5.4z"/>
</g>
</svg>
