<?xml version="1.0" encoding="utf-8"?>
<!-- Generator: Adobe Illustrator 22.0.1, SVG Export Plug-In . SVG Version: 6.00 Build 0)  -->
<svg version="1.1" id="Calque_1" xmlns="http://www.w3.org/2000/svg" xmlns:xlink="http://www.w3.org/1999/xlink" x="0px" y="0px"
	 viewBox="0 0 20 20" style="enable-background:new 0 0 20 20;" xml:space="preserve">
<style type="text/css">
	.st0{fill:none;stroke:#000000;stroke-linecap:round;stroke-linejoin:round;stroke-miterlimit:10;}
</style>
<path class="st0" d="M8.1,14.2c-1.7-4.2-0.9-7,0.4-9.8c0.9-2,2.4-3.3,4.6-3.7c2.2-0.4,3.1,2.2,2.1,3.8c-0.7,1.3-2.7,1.3-3.7,2.2
	c-1.7,1.6-0.5,4.7,1.3,5.8c0.9,0.5,2,0.1,3,0.5c2.8,0.9,0.6,4.9-1.8,4.7c-1.2-0.1-2.1-0.6-3.1-1.2c-0.8-0.4-3.4-2-3.3-0.1
	c0.1,0.9,1.8,1.8,1.6,0.7c-0.2-0.8-1.9-0.8-2.4-0.5C6.3,17,5.1,19,6.5,19.2c0.6-0.7,0-1.7-0.7-2c-0.9-0.4-1.7,0.1-2.3,0.8
	c-0.4,0.7-0.3,1.5,0.4,0.7c0.8-1,0.6-2.5-0.6-3.1c-0.4-0.2-1.9-0.2-1.8,0.6c0.2,1.2,1.6-0.7,1.8-1c0.4-0.9,0.3-2.4-1-2.4
	c-0.6,0-1.2,0.7-0.5,1c0.8,0.4,1.6-0.7,1.6-1.4c0-1.5-0.8-2.5-1.7-2.9"/>
</svg>
