<?xml version="1.0" encoding="utf-8"?>
<!-- Generator: Adobe Illustrator 22.0.1, SVG Export Plug-In . SVG Version: 6.00 Build 0)  -->
<svg version="1.1" xmlns="http://www.w3.org/2000/svg" xmlns:xlink="http://www.w3.org/1999/xlink" x="0px" y="0px"
	 viewBox="0 0 1440 800" enable-background="new 0 0 1440 800" xml:space="preserve">
<g id="Calque_1">
	<line fill="none" stroke="#23E1FF" stroke-miterlimit="10" x1="720" y1="9" x2="720" y2="791"/>
	<line fill="none" stroke="#23E1FF" stroke-miterlimit="10" x1="767" y1="9" x2="767" y2="791"/>
	<line fill="none" stroke="#23E1FF" stroke-miterlimit="10" x1="814" y1="9" x2="814" y2="791"/>
	<line fill="none" stroke="#23E1FF" stroke-miterlimit="10" x1="861" y1="9" x2="861" y2="791"/>
	<line fill="none" stroke="#23E1FF" stroke-miterlimit="10" x1="908" y1="9" x2="908" y2="791"/>
	<line fill="none" stroke="#23E1FF" stroke-miterlimit="10" x1="955" y1="9" x2="955" y2="791"/>
	<line fill="none" stroke="#23E1FF" stroke-miterlimit="10" x1="1002" y1="9" x2="1002" y2="791"/>
	<line fill="none" stroke="#23E1FF" stroke-miterlimit="10" x1="1049" y1="9" x2="1049" y2="791"/>
	<line fill="none" stroke="#23E1FF" stroke-miterlimit="10" x1="1096" y1="9" x2="1096" y2="791"/>
	<line fill="none" stroke="#23E1FF" stroke-miterlimit="10" x1="1143" y1="9" x2="1143" y2="791"/>
	<line fill="none" stroke="#23E1FF" stroke-miterlimit="10" x1="1190" y1="9" x2="1190" y2="791"/>
	<line fill="none" stroke="#23E1FF" stroke-miterlimit="10" x1="1237" y1="9" x2="1237" y2="791"/>
	<line fill="none" stroke="#23E1FF" stroke-miterlimit="10" x1="1284" y1="9" x2="1284" y2="791"/>
	<line fill="none" stroke="#23E1FF" stroke-miterlimit="10" x1="1331" y1="9" x2="1331" y2="791"/>
	<line fill="none" stroke="#23E1FF" stroke-miterlimit="10" x1="1378" y1="9" x2="1378" y2="791"/>
	<line fill="none" stroke="#23E1FF" stroke-miterlimit="10" x1="1425" y1="9" x2="1425" y2="791"/>
	<line fill="none" stroke="#23E1FF" stroke-miterlimit="10" x1="673" y1="9" x2="673" y2="791"/>
	<line fill="none" stroke="#23E1FF" stroke-miterlimit="10" x1="626" y1="9" x2="626" y2="791"/>
	<line fill="none" stroke="#23E1FF" stroke-miterlimit="10" x1="579" y1="9" x2="579" y2="791"/>
	<line fill="none" stroke="#23E1FF" stroke-miterlimit="10" x1="532" y1="9" x2="532" y2="791"/>
	<line fill="none" stroke="#23E1FF" stroke-miterlimit="10" x1="485" y1="9" x2="485" y2="791"/>
	<line fill="none" stroke="#23E1FF" stroke-miterlimit="10" x1="438" y1="9" x2="438" y2="791"/>
	<line fill="none" stroke="#23E1FF" stroke-miterlimit="10" x1="391" y1="9" x2="391" y2="791"/>
	<line fill="none" stroke="#23E1FF" stroke-miterlimit="10" x1="344" y1="9" x2="344" y2="791"/>
	<line fill="none" stroke="#23E1FF" stroke-miterlimit="10" x1="1440.0002" y1="400" x2="0" y2="400"/>
	<line fill="none" stroke="#23E1FF" stroke-miterlimit="10" x1="1440.0002" y1="541" x2="0" y2="541"/>
	<line fill="none" stroke="#23E1FF" stroke-miterlimit="10" x1="1440.0002" y1="588" x2="0" y2="588"/>
	<line fill="none" stroke="#23E1FF" stroke-miterlimit="10" x1="1440.0002" y1="635" x2="0" y2="635"/>
	<line fill="none" stroke="#23E1FF" stroke-miterlimit="10" x1="1440.0002" y1="682" x2="0" y2="682"/>
	<line fill="none" stroke="#23E1FF" stroke-miterlimit="10" x1="1440.0002" y1="729" x2="0" y2="729"/>
	<line fill="none" stroke="#23E1FF" stroke-miterlimit="10" x1="1440.0002" y1="776" x2="0" y2="776"/>
	<line fill="none" stroke="#23E1FF" stroke-miterlimit="10" x1="1440.0002" y1="306" x2="0" y2="306"/>
	<line fill="none" stroke="#23E1FF" stroke-miterlimit="10" x1="1440.0002" y1="259" x2="0" y2="259"/>
	<line fill="none" stroke="#23E1FF" stroke-miterlimit="10" x1="1440.0002" y1="212" x2="0" y2="212"/>
	<line fill="none" stroke="#23E1FF" stroke-miterlimit="10" x1="1440.0002" y1="165" x2="0" y2="165"/>
	<line fill="none" stroke="#23E1FF" stroke-miterlimit="10" x1="1440.0002" y1="118" x2="0" y2="118"/>
	<line fill="none" stroke="#23E1FF" stroke-miterlimit="10" x1="1440.0002" y1="71" x2="0" y2="71"/>
	<line fill="none" stroke="#23E1FF" stroke-miterlimit="10" x1="1440.0002" y1="24" x2="0" y2="24"/>
	<line fill="none" stroke="#23E1FF" stroke-miterlimit="10" x1="297" y1="9" x2="297" y2="791"/>
	<line fill="none" stroke="#23E1FF" stroke-miterlimit="10" x1="203" y1="9" x2="203" y2="791"/>
	<line fill="none" stroke="#23E1FF" stroke-miterlimit="10" x1="156" y1="9" x2="156" y2="791"/>
	<line fill="none" stroke="#23E1FF" stroke-miterlimit="10" x1="109" y1="9" x2="109" y2="791"/>
	<line fill="none" stroke="#23E1FF" stroke-miterlimit="10" x1="62" y1="9" x2="62" y2="791"/>
	<line fill="none" stroke="#23E1FF" stroke-miterlimit="10" x1="15" y1="9" x2="15" y2="791"/>
	<path fill="#231F20" d="M524.3777,318.6733h0.1326v-12.9328h-1.413v9.6849l-9.9336-9.742h-0.1326v12.9328h1.4149v-9.6849
		L524.3777,318.6733z M505.4225,318.7857c1.2841,0,2.4171-0.245,3.4727-0.678v-5.5895h-1.413v4.6462
		c-0.4164,0.1326-1.1901,0.3408-2.1168,0.3408c-2.7008,0-5.2689-1.9454-5.2689-5.2892c0-3.154,2.3415-5.3076,5.2321-5.3076
		c1.3228,0,2.4742,0.3408,3.4156,0.888v-1.4536c-0.9598-0.4532-2.1887-0.7719-3.4543-0.7719c-3.3806,0-6.7022,2.5276-6.7022,6.6451
		C498.5876,315.8233,501.2866,318.7857,505.4225,318.7857 M493.643,318.6162h1.413v-12.8757h-1.413V318.6162z M486.1541,318.7857
		c2.3231,0,4.0586-1.4517,4.0586-3.7177c0-1.4351-0.9617-2.6639-2.6234-3.2866l-1.6433-0.6227
		c-1.3596-0.5103-1.7372-1.1901-1.7372-2.1168c0-0.8861,0.6227-2.1334,2.5128-2.1334c1.0943,0,2.0394,0.3777,2.605,0.6227v-1.3578
		c-0.6595-0.3777-1.5659-0.6024-2.605-0.6024c-2.3618,0-3.9646,1.507-3.9646,3.6237c0,1.4536,0.9801,2.6621,2.6031,3.2664
		l1.6636,0.6227c1.3228,0.4919,1.7372,1.1901,1.7372,2.1352c0,1.2472-1.0206,2.2292-2.5884,2.2292
		c-1.227,0-2.36-0.6043-3.0195-0.982v1.5089C483.9249,318.4099,484.9824,318.7857,486.1541,318.7857 M472.6133,318.6162h7.3249
		v-1.2435h-5.91v-4.6297h5.4955v-1.2435h-5.4955v-4.5154h5.759v-1.2435h-7.1739V318.6162z M459.1499,317.3727v-10.3886h2.2863
		c2.6437,0,6.0998,0.8309,6.0998,5.1934c0,4.3643-3.4561,5.1953-6.0998,5.1953H459.1499z M457.7369,318.6162h3.6035
		c4.1378,0,7.7044-1.7354,7.7044-6.4388c0-4.7015-3.5667-6.4369-7.7044-6.4369h-3.6035V318.6162z M441.3461,318.6162h7.3231v-1.2435
		h-5.91v-4.6297h5.4955v-1.2435h-5.4955v-4.5154h5.759v-1.2435h-7.172V318.6162z M427.8809,317.3727v-10.3886h2.2863
		c2.6437,0,6.0998,0.8309,6.0998,5.1934c0,4.3643-3.4561,5.1953-6.0998,5.1953H427.8809z M426.4679,318.6162h3.6035
		c4.1378,0,7.7044-1.7354,7.7044-6.4388c0-4.7015-3.5667-6.4369-7.7044-6.4369h-3.6035V318.6162z M410.0771,318.6162h7.3231v-1.2435
		h-5.91v-4.6297h5.4955v-1.2435h-5.4955v-4.5154h5.759v-1.2435h-7.172V318.6162z M399.2868,318.6162h7.6823v-1.2435h-6.2693
		v-11.6322h-1.4131V318.6162z M388.4966,318.6162h7.6823v-1.2435h-6.2693v-11.6322h-1.413V318.6162z M377.7211,318.6162h7.3249
		v-1.2435h-5.91v-4.6297h5.4955v-1.2435h-5.4955v-4.5154h5.759v-1.2435h-7.1738V318.6162z M368.1154,318.7857
		c0.8677,0,3.2664-0.1879,4.6075-2.2439c0.678-1.039,0.8659-1.9638,0.8659-3.8909v-6.9104h-1.413v6.9859
		c0,1.9086-0.2837,2.7947-1.0391,3.5888c-0.7737,0.8124-1.8883,1.1901-3.0213,1.1901c-1.1348,0-2.2494-0.3777-3.0232-1.1901
		c-0.7553-0.794-1.0391-1.6802-1.0391-3.5888v-6.9859h-1.413v6.9104c0,1.9271,0.1879,2.8519,0.8659,3.8909
		C364.8473,318.5978,367.2459,318.7857,368.1154,318.7857 M358.3753,318.6733h0.1327v-12.9328h-1.4149v9.6849l-9.9317-9.742h-0.1326
		v12.9328h1.4149v-9.6849L358.3753,318.6733z M342.6699,318.6733h0.1327v-12.9328h-1.413v9.6849l-9.9336-9.742h-0.1326v12.9328
		h1.4149v-9.6849L342.6699,318.6733z M320.0338,313.2368l2.2458-4.9465l2.266,4.9465H320.0338z M327.0179,318.6162h1.4922
		l-6.1919-13.1023h-0.0958l-6.1164,13.1023h1.4922l1.8681-4.1359h5.665L327.0179,318.6162z M300.9422,318.6162h7.3249v-1.2435h-5.91
		v-4.6297h5.4937v-1.2435h-5.4937v-4.5154h5.759v-1.2435h-7.1739V318.6162z M291.3347,318.7857
		c0.8695,0,3.2682-0.1879,4.6094-2.2439c0.6779-1.039,0.8659-1.9638,0.8659-3.8909v-6.9104h-1.413v6.9859
		c0,1.9086-0.2837,2.7947-1.0391,3.5888c-0.7737,0.8124-1.8883,1.1901-3.0232,1.1901c-1.133,0-2.2476-0.3777-3.0214-1.1901
		c-0.7553-0.794-1.039-1.6802-1.039-3.5888v-6.9859h-1.413v6.9104c0,1.9271,0.1879,2.8519,0.8659,3.8909
		C288.0683,318.5978,290.467,318.7857,291.3347,318.7857 M277.2597,318.7489h0.3593l5.4182-13.0083h-1.4167l-4.1912,9.9686
		l-4.228-9.9686h-1.4352L277.2597,318.7489z M261.8472,318.6162h7.3231v-1.2435h-5.91v-4.6297h5.4955v-1.2435h-5.4955v-4.5154h5.759
		v-1.2435h-7.172V318.6162z M251.4125,311.6506v-4.6665h1.6636c1.8883,0,3.4764,0.3206,3.4764,2.3231
		c0,2.1352-1.8146,2.3434-3.2129,2.3434H251.4125z M249.9995,318.6162h1.413v-5.7221h1.4554l3.9664,5.7221h1.7538l-4.077-5.7406
		c1.8515-0.1695,3.5482-1.4333,3.5482-3.5482c0-2.3802-1.9049-3.5869-4.6812-3.5869h-3.3787V318.6162z"/>
	<path fill="#231F20" d="M943.9241,318.7857h0.1124l3.9849-9.9502l3.983,9.9502h0.1142l5.2874-13.0452h-1.4739l-3.8707,9.7604
		l-4.0217-9.7604h-0.0368l-4.0217,9.7604l-3.8707-9.7604h-1.4738L943.9241,318.7857z M928.7179,318.6162h7.325v-1.2435h-5.9119
		v-4.6297h5.4955v-1.2435h-5.4955v-4.5154h5.7608v-1.2435h-7.1738V318.6162z M923.11,318.6162h1.413v-12.8757h-1.413V318.6162z
		 M914.4605,318.7489h0.3592l5.4182-13.0083h-1.4167l-4.1912,9.9686l-4.228-9.9686h-1.4352L914.4605,318.7489z M899.0461,318.6162
		h7.3249v-1.2435h-5.91v-4.6297h5.4955v-1.2435h-5.4955v-4.5154h5.7589v-1.2435h-7.1738V318.6162z M888.6133,311.6506v-4.6665
		h1.6636c1.8883,0,3.4745,0.3206,3.4745,2.3231c0,2.1352-1.8128,2.3434-3.2111,2.3434H888.6133z M887.2003,318.6162h1.413v-5.7221
		h1.4554l3.9664,5.7221h1.7538l-4.077-5.7406c1.8515-0.1695,3.5483-1.4333,3.5483-3.5482c0-2.3802-1.905-3.5869-4.6813-3.5869
		h-3.3787V318.6162z M870.7339,318.6162h7.6823v-1.2435h-6.2693v-11.6322h-1.413V318.6162z M859.4426,313.2368l2.2476-4.9465
		l2.2642,4.9465H859.4426z M866.4285,318.6162h1.4904l-6.192-13.1023h-0.0939l-6.1182,13.1023h1.4922l1.8699-4.1359h5.6631
		L866.4285,318.6162z M847.9615,318.7857c0.8677,0,3.2682-0.1879,4.6076-2.2439c0.6779-1.039,0.8677-1.9638,0.8677-3.8909v-6.9104
		h-1.4149v6.9859c0,1.9086-0.2838,2.7947-1.0391,3.5888c-0.7737,0.8124-1.8884,1.1901-3.0214,1.1901
		c-1.1329,0-2.2476-0.3777-3.0231-1.1901c-0.7554-0.794-1.0391-1.6802-1.0391-3.5888v-6.9859h-1.413v6.9104
		c0,1.9271,0.188,2.8519,0.8677,3.8909C844.6933,318.5978,847.0919,318.7857,847.9615,318.7857 M838.2213,318.6733h0.1327v-12.9328
		h-1.413v9.6849l-9.9336-9.742h-0.1326v12.9328h1.4149v-9.6849L838.2213,318.6733z M822.5178,318.6733h0.1307v-12.9328h-1.413
		v9.6849l-9.9335-9.742h-0.1308v12.9328h1.413v-9.6849L822.5178,318.6733z M799.8798,313.2368l2.2457-4.9465l2.266,4.9465H799.8798z
		 M806.8657,318.6162h1.4904l-6.1919-13.1023h-0.094l-6.1182,13.1023h1.4922l1.8681-4.1359h5.665L806.8657,318.6162z
		 M787.6047,318.6733h0.1308v-12.9328h-1.413v9.6849l-9.9336-9.742h-0.1326v12.9328h1.4149v-9.6849L787.6047,318.6733z
		 M767.8002,318.7857c1.5493,0,2.9274-0.3206,4.3423-0.923v-5.3445h-1.4149v4.4381c-0.4716,0.1897-1.6433,0.5858-3.0601,0.5858
		c-2.5497,0-5.3076-1.8312-5.3076-5.326c0-3.1743,2.3434-5.3076,5.2523-5.3076c1.5678,0,3.0785,0.5103,4.2667,1.378v-1.5862
		c-1.227-0.6964-2.8316-1.1293-4.3625-1.1293c-3.3621,0-6.6635,2.5276-6.6635,6.6451
		C760.8529,315.6538,763.4376,318.7857,767.8002,318.7857 M755.9064,318.6162h1.413v-12.8757h-1.413V318.6162z M748.4175,318.7857
		c2.325,0,4.0604-1.4517,4.0604-3.7177c0-1.4351-0.9617-2.6639-2.6234-3.2866l-1.6433-0.6227
		c-1.3615-0.5103-1.7391-1.1901-1.7391-2.1168c0-0.8861,0.6246-2.1334,2.5129-2.1334c1.0962,0,2.0413,0.3777,2.6069,0.6227v-1.3578
		c-0.6614-0.3777-1.5678-0.6024-2.6069-0.6024c-2.3618,0-3.9646,1.507-3.9646,3.6237c0,1.4536,0.9801,2.6621,2.605,3.2664
		l1.6617,0.6227c1.3228,0.4919,1.7391,1.1901,1.7391,2.1352c0,1.2472-1.0206,2.2292-2.5884,2.2292
		c-1.2288,0-2.3618-0.6043-3.0214-0.982v1.5089C746.1902,318.4099,747.2477,318.7857,748.4175,318.7857 M734.8786,318.6162h7.3249
		v-1.2435h-5.9119v-4.6297h5.4955v-1.2435h-5.4955v-4.5154h5.7608v-1.2435h-7.1738V318.6162z M721.4134,317.3727v-10.3886h2.2863
		c2.6436,0,6.1016,0.8309,6.1016,5.1934c0,4.3643-3.458,5.1953-6.1016,5.1953H721.4134z M720.0004,318.6162h3.6053
		c4.1359,0,7.7026-1.7354,7.7026-6.4388c0-4.7015-3.5667-6.4369-7.7026-6.4369h-3.6053V318.6162z"/>
	<path fill="none" stroke="#23E1FF" stroke-miterlimit="10" d="M0.0172,447l14.5002,0.5c95,0,141,24,236,24
		c0,0,602.7457,0,938.9825,0c95,0,141-24,236-24l14.5002-0.5"/>
	<path fill="none" stroke="#23E1FF" stroke-miterlimit="10" d="M1440.0002,354.0002l-14.5002-0.5c-95,0-141-24-236-24
		c0,0-602.7457,0-938.9825,0c-95,0-141,24-236,24l-14.5002,0.5"/>
	<line fill="none" stroke="#23E1FF" stroke-miterlimit="10" x1="0.0002" y1="493.9996" x2="1440.0002" y2="493.9996"/>
	<line fill="none" stroke="#23E1FF" stroke-miterlimit="10" x1="250" y1="9" x2="250" y2="791"/>
	<g>
		<path fill="#231F20" d="M250.0005,471h74.1776v-25.0574h-11.7335c-2.7247,0-3.773-1.0447-3.773-3.7601v-23.8053
			c0-2.7154,1.0482-3.7583,3.773-3.7583h16.3429c2.9348,0,4.4012,1.0428,7.126,3.7583l22.2105,22.3438
			c3.3529,3.3415,2.7247,5.2215-1.0483,5.2215h-15.7147V471h71.4529v-25.0574h-14.6682c-2.7229,0-4.6094-1.254-7.1241-3.7601
			l-27.8682-27.5635h5.0276c20.3259,0,36.8806-16.7055,36.8806-36.7526v-12.1119c0-20.047-16.5547-36.7544-36.8806-36.7544H250.0005
			v25.0593h25.5653c2.7229,0,3.7711,1.0446,3.7711,3.7582v84.365c0,2.7154-1.0482,3.7601-3.7711,3.7601h-25.5653V471z
			 M312.4447,389.5597c-2.7247,0-3.773-1.0447-3.773-3.7582v-27.984c0-2.7136,1.0482-3.7582,3.773-3.7582h50.9188
			c6.9141,0,12.3617,5.429,12.3617,12.1119v11.2766c0,6.683-5.4476,12.1119-12.3617,12.1119H312.4447z M864.1636,471h70.1965
			v-25.0574h-19.0676c-2.7247,0-3.1429-1.0447-2.0965-3.7601l6.2877-16.0795c1.0464-2.7136,2.5148-3.7582,5.2377-3.7582h53.6416
			c2.7248,0,4.1912,1.0447,5.2394,3.7582l6.2859,16.0795c1.0482,2.7154,0.6282,3.7601-2.0947,3.7601h-19.0695V471h70.1964v-25.0574
			h-13.4099c-2.7247,0-4.1912-1.0447-5.2394-3.7601l-43.1647-109.4224c-1.0483-2.7154-2.5147-3.7601-5.2394-3.7601h-40.6499
			c-2.7247,0-4.1912,1.0447-5.2376,3.7601L882.813,442.1825c-1.0483,2.7154-2.5147,3.7601-5.2376,3.7601h-13.4118V471z
			 M934.3601,397.4948c-2.7247,0-3.1429-1.0447-2.0947-3.7582l16.3428-41.1387c1.2583-2.9229,1.6765-3.7583,2.9348-3.7583
			c1.2564,0,1.6765,0.8354,2.9329,3.7583l16.3448,41.1387c1.0464,2.7136,0.6282,3.7582-2.0966,3.7582H934.3601z M719.9996,471
			h92.4088c41.2781,0,60.9758-21.2992,60.9758-70.9991S853.6866,329,812.4084,329h-92.4088v25.0593h25.5653
			c2.7229,0,3.7712,1.0446,3.7712,3.7582v84.365c0,2.7154-1.0483,3.7601-3.7712,3.7601h-25.5653V471z M782.4437,445.9426
			c-2.7247,0-3.7729-1.0447-3.7729-3.7601v-84.365c0-2.7136,1.0482-3.7582,3.7729-3.7582h45.0511
			c6.9141,0,12.3618,5.429,12.3618,12.1119v67.6594c0,6.6811-5.4476,12.112-12.3618,12.112H782.4437z M1025.3005,471h74.1776
			v-25.0574h-11.7334c-2.7247,0-3.7731-1.0447-3.7731-3.7601v-23.8053c0-2.7154,1.0483-3.7583,3.7731-3.7583h16.3429
			c2.9347,0,4.4011,1.0428,7.124,3.7583l22.2124,22.3438c3.3529,3.3415,2.7229,5.2215-1.0482,5.2215h-15.7147V471h73.3395v-25.0574
			h-16.5548c-2.7247,0-4.6094-1.254-7.1241-3.7601l-27.8682-27.5635h5.0276c20.3259,0,36.8788-16.7055,36.8788-36.7526v-12.1119
			c0-20.047-16.5529-36.7544-36.8788-36.7544h-118.1805v25.0593h25.5636c2.7247,0,3.7729,1.0446,3.7729,3.7582v84.365
			c0,2.7154-1.0482,3.7601-3.7729,3.7601h-25.5636V471z M1087.7448,389.5597c-2.7247,0-3.7731-1.0447-3.7731-3.7582v-27.984
			c0-2.7136,1.0483-3.7582,3.7731-3.7582h50.917c6.9159,0,12.3635,5.429,12.3635,12.1119v11.2766
			c0,6.683-5.4476,12.1119-12.3635,12.1119H1087.7448z M570.808,471h88.2158c41.28,0,60.9758-21.2992,60.9758-70.9991
			S700.3038,329,659.0238,329h-92.407v25.0593h25.5635c2.7248,0,3.7712,1.0446,3.7712,3.7582v84.365
			c0,2.7154-1.0464,3.7601-3.7712,3.7601H570.808V471z M629.0591,445.9426c-2.723,0-3.7712-1.0447-3.7712-3.7601v-84.365
			c0-2.7136,1.0482-3.7582,3.7712-3.7582h45.0511c6.916,0,12.3636,5.429,12.3636,12.1119v67.6594
			c0,6.6811-5.4476,12.112-12.3636,12.112H629.0591z M405.4799,471h70.1964v-25.0574h-19.0676
			c-2.7247,0-3.1429-1.0447-2.0965-3.7601l6.2859-16.0795c1.0483-2.7136,2.5147-3.7582,5.2395-3.7582h53.6417
			c2.7247,0,4.1912,1.0447,5.2394,3.7582l6.2858,16.0795c1.0483,2.7154,0.6282,3.7601-2.0947,3.7601h-19.0694V471h70.1964v-25.0574
			h-13.41c-2.7247,0-4.1912-1.0447-5.2394-3.7601l-43.1647-109.4224c-1.0483-2.7154-2.5147-3.7601-5.2394-3.7601h-40.6499
			c-2.7248,0-4.1912,1.0447-5.2395,3.7601l-43.1646,109.4224c-1.0482,2.7154-2.5147,3.7601-5.2376,3.7601h-13.4118V471z
			 M475.6763,397.4948c-2.7247,0-3.1429-1.0447-2.0947-3.7582l16.3429-41.1387c1.2583-2.9229,1.6765-3.7583,2.9348-3.7583
			c1.2564,0,1.6746,0.8354,2.9329,3.7583l16.3447,41.1387c1.0464,2.7136,0.6282,3.7582-2.0965,3.7582H475.6763z"/>
	</g>
</g>
<g id="Calque_2" display="none">
</g>
</svg>
